<?xml version="1.0" encoding="utf-8"?>
<!-- Generator: Adobe Illustrator 25.1.0, SVG Export Plug-In . SVG Version: 6.00 Build 0)  -->
<svg version="1.1" id="Layer_1" xmlns="http://www.w3.org/2000/svg" xmlns:xlink="http://www.w3.org/1999/xlink" x="0px" y="0px"
	 viewBox="0 0 1920 7000" style="enable-background:new 0 0 1920 7000;" xml:space="preserve">
<style type="text/css">
	.st0{opacity:0.8;fill:#E3572B;enable-background:new    ;}
	.st1{opacity:0.9;fill:#E3572B;enable-background:new    ;}
	.st2{opacity:0.82;fill:#E3572B;enable-background:new    ;}
	.st3{opacity:0.85;fill:#E3572B;enable-background:new    ;}
	.st4{fill:#FB8950;}
	.st5{opacity:0.55;fill:#114F4F;enable-background:new    ;}
	.st6{opacity:0.64;fill:#114F4F;enable-background:new    ;}
	.st7{opacity:0.6;fill:#114F4F;enable-background:new    ;}
	.st8{opacity:0.96;fill:#E3572B;enable-background:new    ;}
	.st9{opacity:0.87;fill:#114F4F;enable-background:new    ;}
	.st10{opacity:0.7;fill:#114F4F;enable-background:new    ;}
	.st11{fill:#063232;}
	.st12{opacity:0.77;fill:#114F4F;enable-background:new    ;}
	.st13{opacity:0.8;fill:#114F4F;enable-background:new    ;}
	.st14{fill:#FC9A4F;}
	.st15{opacity:0.96;fill:#063232;enable-background:new    ;}
	.st16{fill:#114F4F;}
	.st17{opacity:0.9;fill:#114F4F;enable-background:new    ;}
	.st18{opacity:0.93;fill:#114F4F;enable-background:new    ;}
	.st19{opacity:0.89;fill:#114F4F;enable-background:new    ;}
	.st20{fill:#F6416F;}
	.st21{fill:#D5236E;}
	.st22{opacity:0.99;fill:#E3572B;enable-background:new    ;}
	.st23{fill:#FDFDFD;}
	.st24{fill:#FAFAFA;}
</style>
<path class="st0" d="M954.5,3785.1c-6-0.4-12-0.5-17.9-1.3c-14.4-1.9-28.7-4.9-42.5-9.6c-7.2-2.4-14.3-5.3-21.5-8.7
	c4.2-5.3,8.4-10.1,12.8-14.8c1.5-1.6,3.6-2.6,5-4.2c7.3-8.7,14.9-17,23-24.9c6.5-6.4,13-12.9,19.4-19.4c2.2-2.2,4.3-4.4,6.1-6.9
	c1.5-2.2,3.9-3.7,5.9-5.6c2-1.9,4.4-3.5,5.8-5.7c2.4-3.6,5.5-6.4,8.6-9.2c2-1.8,3.9-3.8,5.7-5.8c6.3-6.9,12.7-13.6,19.1-20.3
	c6.4-6.6,12.9-12.9,19.4-19.4c2.4-2.5,5-4.8,6.9-7.8c1-1.6,2.9-2.8,4.3-4.1c2.8-2.6,6-4.9,8.3-7.9c2.9-3.9,6.4-7,9.7-10.3
	c0.6-0.6,1.4-1.1,2-1.8c7.8-8.2,15-16.9,23.2-24.7c5.8-5.6,11.4-11.3,17.1-17.1c2.7-2.7,5.7-5.1,7.7-8.5c0.5-0.9,1.5-1.6,2.5-2.1
	c2.7-1.6,4.2-4,4.4-7.1c1.6-0.1,3.2-0.4,4.9-0.4c15.8,0,31.7,0,47.5,0c2.3,0,4.8,0.2,7,0.9c6.8,2.4,10.8,8.1,10.9,15.4
	c0.1,6.6,0,13.1-0.5,20.2c-3,0.7-5,2-6.6,3.8c-2.9,3.2-5.7,6.7-8.7,9.8c-13,13.1-26.1,26.1-39,39.1c-2.4,2.4-4.5,5.2-6.8,7.8
	c-3.4,3.8-7.7,6.8-10.4,11.3c-0.3,0.4-0.8,0.7-1.2,1c-1.7,1.4-3.4,2.7-4.9,4.3c-3.2,3.4-6.2,7.2-9.5,10.5
	c-12.6,12.7-25.3,25.3-37.9,37.9c-2.8,2.8-5.3,6-8,8.9c-9.2,9.8-19,19.2-28.1,29.2c-7.8,8.6-16.5,16.6-24.7,24.9
	c-2.3,2.3-4.8,4.5-6.5,7.4c-0.7,1.2-2.1,2-3.1,3c-2.2,1.9-4.4,3.8-6.5,5.8C955.4,3780.5,954.4,3782.6,954.5,3785.1z"/>
<path class="st1" d="M738.6,3621.8c-3-6.7-4.7-13.7-6.4-20.8c-3-12-5.2-24.1-6-36.5c-0.2-3.6-0.5-7.2-0.3-11.4
	c2.1-0.4,3.1-1.4,4.2-2.5c3-2.9,5.5-6.3,8.4-9.3c11.4-12.3,23.9-23.6,35.1-36.1c11.7-13.1,24.9-24.6,36.6-37.7
	c11.4-12.8,24.4-24.1,35.8-36.9c11.7-13,24.9-24.6,36.6-37.7c11.4-12.8,24.4-24.1,35.8-36.9c11.7-13,25.1-24.4,36.6-37.7
	c5.2-6.1,11.3-11.4,17.3-17.4c0-23.4,0-47.1,0-71.3c0-6.4,0-12.2,0-18.6c0-30.2,0-59.8,0-89.9c0.2-2-0.5-3.7,1-5
	c0.1,1.8,0.3,3.6,0.3,5.4c0,82.7,0,165.4,0,248.1c0,5.5-0.1,10.9-0.7,16.9c-1.3,0.8-2.4,0.9-3,1.4c-5.4,4.9-10.8,9.8-16,14.8
	c-1.2,1.1-2.2,2.5-2.9,3.9c-1.5,3-4,5.2-6.5,7.3c-1.8,1.6-3.6,3.1-5.4,4.6c-7.3,6-12.1,14.6-19.9,20.1c-0.3,0.2-0.4,0.6-0.6,0.9
	c-3.5,4.6-6.7,9.6-11.9,12.7c-0.3,0.2-0.6,0.5-0.8,0.8c-3.1,4.8-7.7,8.3-11.6,12.4c-1.5,1.6-3.4,2.8-5,4.2c-3.3,3.1-7.1,5.8-9.4,9.9
	c-2.5,4.4-6.1,7.7-10,10.7c-3.5,2.7-7.5,4.8-9.9,8.5c-5.5,8.5-13.3,14.9-19.7,22.6c-4.7,5.8-10.5,10.7-15.8,16
	c-0.9,0.9-2.1,1.5-3,2.3c-4.5,4.3-8.9,8.7-13.3,13c-0.4,0.4-0.6,0.9-0.8,1.4c-1.1,2.6-3,4.6-5,6.4c-2.4,2.2-5.1,4.1-7.4,6.4
	c-4.8,4.9-9.8,9.7-14.3,15.1c-5.4,6.6-11.6,12.6-17.5,18.8c-4.2,4.3-8.4,8.6-12.8,12.8c-2.8,2.6-5.7,5.1-8.7,7.4
	C740.9,3621.6,739.6,3621.5,738.6,3621.8z"/>
<path class="st1" d="M738.6,3622.2c1-0.6,2.3-0.6,3.1-1.2c3-2.4,5.9-4.8,8.7-7.4c4.4-4.2,8.6-8.4,12.8-12.8
	c5.9-6.2,12.1-12.2,17.5-18.8c4.4-5.4,9.4-10.1,14.3-15.1c2.3-2.3,5-4.2,7.4-6.4c2-1.8,4-3.8,5-6.4c0.2-0.5,0.4-1,0.8-1.4
	c4.4-4.4,8.8-8.7,13.3-13c0.9-0.9,2.1-1.5,3-2.3c5.3-5.3,11.1-10.2,15.8-16c6.4-7.7,14.2-14.1,19.7-22.6c2.4-3.7,6.4-5.9,9.9-8.5
	c3.9-3,7.5-6.3,10-10.7c2.3-4,6-6.8,9.4-9.9c1.6-1.5,3.5-2.7,5-4.2c3.9-4.1,8.5-7.5,11.6-12.4c0.2-0.3,0.5-0.6,0.8-0.8
	c5.2-3.1,8.4-8,11.9-12.7c0.2-0.3,0.3-0.7,0.6-0.9c7.8-5.6,12.6-14.1,19.9-20.1c1.8-1.5,3.6-3,5.4-4.6c2.5-2.2,5-4.3,6.5-7.3
	c0.7-1.4,1.7-2.8,2.9-3.9c5.3-5,10.6-10,16-14.8c0.6-0.6,1.7-0.6,2.9-0.9c0.5,1.1,0.6,2.2,0.6,3.2c0,28.6,0,57.1-0.5,86.2
	c-2.1,0.4-3.2,1.5-4.2,2.5c-3.5,3.5-7.1,6.9-10.4,10.5c-3.1,3.3-6,6.8-8.8,10.4c-2,2.6-4.3,4.9-6.9,6.9c-1.9,1.4-3.5,3.2-5.1,4.9
	c-1.4,1.5-2.5,3.1-3.9,4.6c-1.1,1.2-2.4,2.3-3.4,3.6c-3.5,4.9-7.8,9.1-12.7,12.7c-2.1,1.6-3.8,3.9-5.6,5.9c-1.1,1.2-2,2.8-3.3,3.6
	c-2.7,1.6-4.8,3.9-7,6.1c-6.7,7-13.8,13.4-20.1,20.9c-4.2,5-7.7,10.7-13.6,14.1c-0.3,0.2-0.5,0.6-0.7,0.8c-2.1,2.3-4.1,4.6-6.2,6.9
	c-1.1,1.2-2.4,2.3-3.4,3.6c-3.5,4.9-7.8,9.1-12.7,12.7c-2.1,1.6-3.7,4-5.6,6c-1.4,1.4-2.8,2.8-4.2,4.2c-1.2,1.1-2.6,2-3.7,3.2
	c-5.8,5.8-11.6,11.6-17.5,17.4c-0.8,0.8-1.6,1.5-2.3,2.4c-4.7,6.1-9.6,11.9-15.1,17.2c-3,2.9-6,5.9-8.9,8.9c-1,1-2.1,2.1-2.9,3.3
	c-3.3,5-8,8.4-12.7,11.9c-0.6,0.5-1.7,0.3-2.6,0.5c-5-6.3-9.1-13.2-13-20.2C749.3,3649.3,743.3,3636.2,738.6,3622.2z"/>
<path class="st2" d="M1089,3537.8c0.2,3.3-1.2,5.6-3.9,7.2c-0.9,0.5-2,1.2-2.5,2.1c-2,3.4-5,5.8-7.7,8.5
	c-5.6,5.7-11.3,11.5-17.1,17.1c-8.2,7.8-15.4,16.5-23.2,24.7c-0.6,0.7-1.4,1.2-2,1.8c-3.4,3.3-6.9,6.5-9.7,10.3
	c-2.2,3-5.5,5.3-8.3,7.9c-1.5,1.4-3.3,2.5-4.3,4.1c-1.9,3-4.5,5.3-6.9,7.8c-6.4,6.5-13,12.9-19.4,19.4c-6.5,6.7-12.9,13.4-19.1,20.3
	c-1.8,2-3.6,3.9-5.7,5.8c-3.1,2.8-6.2,5.6-8.6,9.2c-1.5,2.2-3.9,3.8-5.8,5.7c-2,1.9-4.4,3.4-5.9,5.6c-1.8,2.6-4,4.8-6.1,6.9
	c-6.4,6.5-12.9,13-19.4,19.4c-8.1,7.9-15.7,16.2-23,24.9c-1.4,1.6-3.5,2.7-5,4.2c-4.4,4.6-8.6,9.4-13,14.5
	c-5.9-2.3-11.8-4.6-17.4-7.6c-14.9-7.8-28.8-17-41.4-28.1c1.2-1,2.4-1.6,3.3-2.5c3.2-2.8,5.5-6.3,8.4-9.3c6.8-7.2,14-13.9,20.8-21
	c7-7.2,13.8-14.5,20.7-21.8c3.5-3.7,8.2-6.1,10.7-10.7c9-9.3,17.9-18.7,26.9-28c7-7.2,14.2-14.2,21.3-21.3c0.9-0.9,1.9-1.7,2.7-2.8
	c4.7-6.3,10.3-11.8,16.5-16.6c1.1-0.9,2-2.1,2.9-3.2c0.7-0.8,1.2-1.9,2-2.6c8.3-7.7,15.4-16.5,23.4-24.5
	c7.2-7.3,14.4-14.5,21.7-21.7c1.6-1.6,2.9-3.3,2.5-5.7c1.4-0.1,2.9-0.4,4.3-0.4c28.4,0,56.8,0,85.2,0
	C1087.4,3537.6,1087.9,3537.6,1089,3537.8z"/>
<path class="st1" d="M972,3230.1c0,23.7,0,47.5,0,70.8c-6,6-12,11.3-17.3,17.4c-11.5,13.3-24.9,24.7-36.6,37.7
	c-11.5,12.8-24.4,24.1-35.8,36.9c-11.7,13.1-24.9,24.6-36.6,37.7c-11.5,12.8-24.4,24.1-35.8,36.9c-11.7,13.1-24.9,24.6-36.6,37.7
	c-11.2,12.5-23.6,23.8-35.1,36.1c-2.8,3-5.4,6.4-8.4,9.3c-1.1,1-2.1,2.1-4.1,2c-0.5-7.7-0.6-15.4-0.3-24c0.4-9.2,0.5-17.6,0.4-26.4
	c0.1-6.9,0.2-13.4,0.5-19.9c0.1-1.8,0.5-3.5,1.1-5.3c2.8,0.2,4-1.5,5.4-2.9c7.1-7.1,14.2-14.2,21.3-21.3c2.4-2.4,4.8-4.9,6.9-7.7
	c2.1-2.9,4.8-5.6,7.7-7.7c5.6-4.2,10.3-9.2,14.8-14.5c2.9-3.5,5.7-7.1,8.8-10.4c14.2-14.9,29.6-28.6,43.2-44.2
	c2.7-3.1,6.4-5.4,9.3-8.4c4.7-4.8,9.4-9.6,13.7-14.7c5.2-6.3,11.1-12.1,16.8-17.9c7.7-7.8,15.5-15.5,23.2-23.3
	c1.7-1.7,3-3.7,4.6-5.4c3.3-3.4,6.5-7,10.1-9.9c4.2-3.3,8-7,11.4-11c5.9-6.9,11.8-13.9,18.2-20.3c7.8-7.7,15.5-15.5,23.3-23.2
	c1-1,2-2.1,3.2-3C970.3,3230.6,971.2,3230.4,972,3230.1z"/>
<path class="st3" d="M996.8,3537.8c0.9,2.6-0.4,4.2-2,5.9c-7.3,7.2-14.5,14.4-21.7,21.7c-8,8-15.1,16.8-23.4,24.5
	c-0.8,0.7-1.3,1.8-2,2.6c-0.9,1.1-1.8,2.3-2.9,3.2c-6.3,4.8-11.8,10.3-16.5,16.6c-0.8,1-1.8,1.8-2.7,2.8
	c-7.1,7.1-14.3,14.1-21.3,21.3c-9,9.3-17.9,18.6-26.9,28c-2.5,4.6-7.2,7.1-10.7,10.7c-6.9,7.2-13.7,14.6-20.7,21.8
	c-6.9,7.1-14.1,13.8-20.8,21c-2.9,3-5.2,6.6-8.4,9.3c-0.9,0.8-2.1,1.4-3.5,2.1c-7.5-5.1-13.5-11.4-19.6-17.6
	c-8.8-8.9-16.8-18.6-24.1-29.3c0.8-0.5,1.9-0.4,2.5-0.8c4.7-3.5,9.4-7,12.7-11.9c0.8-1.2,1.9-2.2,2.9-3.3c2.9-3,5.9-6,8.9-8.9
	c5.5-5.4,10.5-11.1,15.1-17.2c0.7-0.9,1.5-1.6,2.3-2.4c5.8-5.8,11.6-11.6,17.5-17.4c1.2-1.1,2.5-2.1,3.7-3.2
	c1.5-1.4,2.9-2.8,4.2-4.2c1.9-2,3.4-4.3,5.6-6c4.8-3.7,9.1-7.8,12.7-12.7c0.9-1.3,2.3-2.4,3.4-3.6c2.1-2.3,4.1-4.6,6.2-6.9
	c0.2-0.3,0.4-0.7,0.7-0.8c5.9-3.4,9.5-9.1,13.6-14.1c6.2-7.5,13.4-13.9,20.1-20.9c2.1-2.2,4.2-4.5,7-6.1c1.3-0.8,2.2-2.4,3.3-3.6
	c1.8-2,3.5-4.3,5.6-5.9c4.8-3.7,9.1-7.8,12.7-12.7c0.9-1.3,2.3-2.4,3.4-3.6c1.3-1.5,2.5-3.1,3.9-4.6c1.6-1.7,3.2-3.5,5.1-4.9
	c2.7-2,4.9-4.3,6.9-6.9c2.8-3.6,5.7-7.1,8.8-10.4c3.4-3.6,7-7,10.4-10.5c1-1.1,2.1-2.1,4.1-2c0.5,2,0.6,4,0.6,6
	c0,12.1,0,24.1,0,36.2c0,2.2,0.1,4.4,0.6,6.5c1.8,7.3,4.3,10,13.8,11.7C990.4,3537.9,993.4,3537.6,996.8,3537.8z"/>
<path class="st4" d="M955,3785.2c-0.6-2.6,0.4-4.8,2.2-6.5c2.1-2,4.3-3.9,6.5-5.8c1.1-1,2.4-1.8,3.1-3c1.7-2.9,4.2-5,6.5-7.4
	c8.2-8.3,16.9-16.2,24.7-24.9c9.1-10,18.8-19.4,28.1-29.2c2.7-2.9,5.2-6.1,8-8.9c12.6-12.6,25.3-25.2,37.9-37.9
	c3.3-3.4,6.3-7.1,9.5-10.5c1.5-1.6,3.3-2.9,4.9-4.3c0.4-0.4,1-0.6,1.2-1c2.7-4.5,7-7.4,10.4-11.3c2.3-2.6,4.4-5.4,6.8-7.8
	c13-13.1,26.1-26,39-39.1c3.1-3.1,5.8-6.5,8.7-9.8c1.6-1.8,3.6-3.1,6.5-3.3c0.5,0.9,0.6,1.8,0.6,2.7c0,32.4,0,64.8-0.5,97.7
	c-1.3,0.8-2.3,0.9-3,1.4c-1,0.7-1.9,1.7-2.8,2.6c-2.1,2-4,4.4-6.4,6c-2.7,1.8-3.8,4.9-6.3,6.8c-2.9,2.2-5.8,4.4-7.2,8
	c-0.4,1.1-1.7,1.9-2.7,2.7c-6.7,5.3-12.8,11.3-18.1,18.2c-2.8,3.6-5.7,7.1-9,10.2c-2.7,2.7-5.6,5.2-7.6,8.5
	c-0.7,1.2-1.9,2.4-3.1,3.1c-3.7,2.2-6.4,5.4-9.3,8.4c-4.1,4.3-9.1,7.9-12.2,13.1c-0.9,1.5-2.6,2.6-4.1,3.6c-1.8,1.3-3.2,2.9-4.6,4.6
	c-1.5,2-3.4,3.8-5.4,5.3c-2.8,2.1-5.2,4.5-6.5,7.9c-2.4,0.2-4.7,0.5-7.1,0.5c-20,0-40.1,0.1-60.1,0
	C974.4,3785.9,964.9,3785.5,955,3785.2z"/>
<path class="st5" d="M1152.6,2844.9c1.3-0.2,2.5-0.5,3.8-0.5c8.1,0,16.2-0.1,24.4,0c3.7,0,7.3,0.7,10.6,2.6
	c4.9,2.7,7.6,6.8,7.9,12.4c0.1,1.5,0,2.9,0,4.4c0,73.1,0,146.2,0,219.3c0,1.1,0,2.2,0,3.3c-0.2,8.8-6.9,15.6-15.7,15.7
	c-10.3,0.1-20.7,0-31.5-0.6c-0.5-77.2-0.5-153.8-0.5-230.4C1151.5,2862.3,1150.8,2853.6,1152.6,2844.9z"/>
<path class="st6" d="M1109.1,3101.5c-6.9,0.1-13.7,0.2-20.6,0.2c-7.1,0-14.1,0-21.7-0.6c-0.5-82.3-0.5-163.9-0.5-245.6
	c0-3.6-0.2-7.3,1.1-10.8c0.9-0.2,1.8-0.5,2.6-0.5c13,0,26.1,0.1,39.6,0.7c-0.9,5-0.6,9.6-0.6,14.1
	C1109.1,2939.8,1109.1,3020.7,1109.1,3101.5z"/>
<path class="st7" d="M1109.6,3101.6c-0.5-80.9-0.5-161.8-0.5-242.6c0-4.5-0.3-9.1,1.1-13.9c1.1-0.6,2.1-0.9,3.2-0.9
	c12.7,0,25.4,0.1,38.6,0.3c-1.3,8.8-0.5,17.6-0.5,26.3c0,76.6,0,153.2,0,230.3C1137.6,3101.6,1123.9,3101.6,1109.6,3101.6z"/>
<path class="st8" d="M973.2,3115.7c-1.6,1.7-0.9,3.4-1.5,5.4c-1.3,0.7-2.3,0.7-2.9,1.2c-1.9,1.7-3.7,3.5-5.3,5.5
	c-3,3.9-6.4,7.4-10.4,10.4c-1.4,1.1-2.6,2.5-3.9,3.8c-0.7,0.8-1.2,1.8-1.9,2.6c-7.5,7.7-15.4,15-22.3,23.3c-3.1,3.8-6.9,7-10.3,10.4
	c-6.7,6.7-13.4,13.4-20.1,20.1c-1,1-2.2,2-3,3.2c-3.2,4.5-7,8.3-11.5,11.5c-2.7,2-4.7,4.5-4.8,8.5c-3.1,1.9-5.9,3.6-8.7,5.2
	c-12.6,7.5-24.2,16.2-34.6,26.4c-3.8,3.7-7.5,7.5-11.2,11.2c-0.9,0.9-1.8,1.8-2.6,2.8c-3,3.6-5.8,7.5-9,10.9
	c-5.2,5.7-9.5,11.9-13.9,18.2c-4.5,6.4-8.5,13.1-12.9,19.6c-7,10.6-13.1,21.9-19,33.1c-5.9,11.1-11.2,22.5-16,34.1
	c-4.3,10.2-8.2,20.6-12.4,30.9c-0.9,2.3-2.1,4.6-3.3,6.3c0.1-2.3,0.1-4.1,0.4-5.9c1.6-11.7,3.2-23.5,5-35.2
	c3.9-25.5,9.4-50.6,16.5-75.4c0.6-1.9,0.9-3.9,1.6-6.1c1.4-3.5,2.4-6.6,4-9.8c3.4-0.3,5.3-2.3,7.2-4.3c6.7-6.7,13.5-13.4,20.1-20.2
	c6.7-6.9,13.3-14,19.9-21c1.7-1.8,3.2-4,4.9-5.8c3.8-3.9,7.4-8,11.8-11.4c2.6-2,4.8-4.5,7-6.8c1.5-1.6,2.7-3.4,4.2-5
	c9.5-9.6,19.1-19.1,28.6-28.7c1.2-1.2,2.4-2.3,3.3-3.6c2.7-3.6,5.4-7.2,9.1-10c2.6-2,4.9-4.4,6.9-7c4.5-5.8,9.5-11,15.4-15.4
	c1.6-1.2,3.2-2.6,4.2-4.3c2.2-3.5,5.2-6.1,8-8.9c4.5-4.6,9-9,13.5-13.6c4.4-4.4,8.8-8.8,13.2-13.2c2-2,3.6-4.1,4-7.2
	c10-1.5,19.5-2.4,29.2-2.2c2.9,0.1,5.8,0.1,9,0.4c0.9,0.3,1.5,0.5,2.3,0.9s1.4,0.6,2,1.1c0,0.2,0,0.7,0,0.7
	c-0.6,0.4-1.2,0.9-1.8,1.2c-4.2,1.8-6.2,5.2-7.3,9.3C973.8,3113.9,973.5,3114.6,973.2,3115.7z"/>
<path class="st9" d="M978.6,3099.9c-2.9-0.1-5.8-0.2-8.7-0.2c-9.6-0.2-19.2,0.7-29.6,2.1c-2.4,0.3-4,0.5-5.5,0.2c0-8.2,0-16,0-23.7
	c0-2.4-0.2-4.7-2.3-6.3c1.3-1,2.7-1.9,3.9-2.9c3.8-3.2,5.9-7.4,6-12.4c0-1.8,0-3.7,0-5.5c0-61.7,0-123.5,0-185.2
	c0-2.2-0.1-4.4,0.1-6.6c0.5-7.5,6.4-13.7,13.9-14.7c7.1-0.9,14.2-0.6,21.8,0.2c0.5,83.9,0.5,167.2,0.5,250.5
	C978.6,3097,978.6,3098.5,978.6,3099.9z"/>
<path class="st10" d="M1067.3,2844.5c-0.8,3.7-0.6,7.3-0.6,11c0,81.7,0,163.4,0,245.5c-11.7,0.6-23.5,0.6-35.7,0.1
	c-0.5-81.2-0.5-161.9-0.5-242.6c0-4.4-0.2-8.7,2.1-12.7c0.2-0.3,0.1-0.7,0.1-1.1c0.9-0.2,1.8-0.5,2.6-0.5
	C1045.8,2844.2,1056.3,2844.3,1067.3,2844.5z"/>
<path class="st11" d="M754.9,3298.2c-0.4,1.9-0.8,3.9-1.3,5.8c-7.1,24.8-12.6,49.9-16.5,75.4c-1.8,11.7-3.4,23.5-5,35.2
	c-0.3,1.8-0.3,3.6-0.5,6.4c-0.5,4.2-0.9,7.4-1.2,10.7c-1,10.5-1.9,21.1-2.7,31.6c-0.3,4.5-0.3,9.1-0.4,13.7
	c-0.2,1.8-0.6,3.5-0.7,5.3c-0.3,6.5-0.4,13-0.7,20c-0.1,0.5-0.5,0.7-0.5,0.7c-0.1-9.5-0.2-19-0.2-28.5c0-126.8,0-253.7,0-380.5
	c0-1.8-0.1-3.7,0-5.5c0.4-8.3,6.7-14.8,15-15.4c3.1-0.2,6.2-0.1,9.9,0.4c2.5,3.1,2.7,6.1,2.7,9.3c0,69,0,138,0,207
	c0,1.6,0,3.3,0,4.9C752.7,3296.4,753.5,3297.5,754.9,3298.2z"/>
<path class="st12" d="M1033,2844.5c0.5,0.5,0.5,1,0.4,1.3c-2.3,4-2.1,8.4-2.1,12.7c0,80.7,0,161.3,0,242.5
	c-8.4,0.6-16.9,0.6-25.8,0.1c-0.5-82.4-0.5-164.3-0.5-246.1c0-3.5-0.2-6.9,1.1-10.3c0.9-0.2,1.8-0.5,2.6-0.5
	C1016.6,2844.2,1024.6,2844.3,1033,2844.5z"/>
<path class="st13" d="M1005.6,2844.6c-0.8,3.5-0.6,7-0.6,10.4c0,81.8,0,163.7,0,246c-5.4,0.5-10.8,0.6-17,0.4
	c-2.9-0.4-5-0.5-7.1-0.7c-0.6-0.2-1.2-0.3-2.1-0.6c-0.2-1.6-0.2-3.1-0.2-4.5c0-83.3,0-166.6,0-250.4c0.9-0.6,1.7-0.9,2.6-0.9
	C989.2,2844.3,997.1,2844.3,1005.6,2844.6z"/>
<path class="st14" d="M1051.4,3785.6c0.9-3.6,3.3-5.9,6.1-8.1c2-1.5,3.9-3.3,5.4-5.3c1.4-1.8,2.7-3.3,4.6-4.6c1.5-1,3.2-2.1,4.1-3.6
	c3.2-5.3,8.1-8.8,12.2-13.1c2.9-3,5.7-6.2,9.3-8.4c1.2-0.7,2.3-1.9,3.1-3.1c2-3.4,4.9-5.9,7.6-8.5c3.3-3.2,6.3-6.6,9-10.2
	c5.2-6.9,11.3-12.8,18.1-18.2c1-0.8,2.3-1.6,2.7-2.7c1.4-3.6,4.3-5.8,7.2-8c2.5-1.9,3.5-5,6.3-6.8c2.4-1.6,4.3-3.9,6.4-6
	c0.9-0.9,1.8-1.9,2.8-2.6c0.7-0.5,1.7-0.6,2.9-0.9c0.5,1.8,0.6,3.6,0.6,5.5c0,28.7,0,57.3,0,86c0,0.7,0,1.5,0,2.2
	c-0.2,9-5.4,15.1-14.3,16.6c-1.4,0.2-2.9,0.2-4.4,0.2c-28.8,0-57.7,0-86.5,0C1053.6,3786,1052.7,3785.9,1051.4,3785.6z"/>
<path class="st15" d="M755.2,3297.9c-1.7-0.4-2.5-1.5-2.5-3.1s0-3.3,0-4.9c0-69,0-138,0-207c0-3.2-0.1-6.2-2.2-9.2
	c7.3-0.5,14.6-0.5,22.5-0.1c2.3,3,2.7,5.7,2.7,8.8c-0.1,49.2-0.1,98.4-0.1,147.5c0,1.6,0,3.3,0.1,4.9c0.1,1.4,0.9,2.3,2.1,3.4
	c-3.9,9.5-7.9,18.5-11.5,27.7c-2.8,7.3-5.1,14.8-7.6,22.3C757.6,3291.3,756.6,3294.4,755.2,3297.9z"/>
<path class="st16" d="M777.8,3237.8c-1.2-0.6-2.1-1.5-2.1-3c-0.1-1.6-0.1-3.3-0.1-4.9c0-49.2,0-98.4,0.1-147.5c0-3-0.4-5.8-2.2-8.7
	c9.5-0.5,19-0.5,29.1-0.1c2.6,2.5,2.7,4.9,2.7,7.5c0,31.6,0,63.1,0,94.7c0,1.5-0.1,2.9,0,4.4c0.2,2.3,0.4,4.7,2.5,6.6
	c-11.1,15.8-20.7,32.1-28.8,49.2C778.7,3236.6,778.2,3237.2,777.8,3237.8z"/>
<path class="st17" d="M808,3186.4c-2.2-1.5-2.4-3.9-2.7-6.3c-0.2-1.4,0-2.9,0-4.4c0-31.6,0-63.1,0-94.7c0-2.6-0.1-5.1-2.1-7.4
	c3.9-0.5,7.9-0.6,11.8-0.6c8.1,0,16.3,0,25,0.5c3.2,3.1,3.8,6.2,3.8,9.9c-0.1,18.6-0.1,37.1-0.1,55.7c0,2.4,0,4.7,1.1,7.2
	c-10,9.1-19.2,18.4-27.5,28.6C814.2,3178.7,811.1,3182.6,808,3186.4z"/>
<path class="st18" d="M844.5,3150.7c-1.4-2.2-1.4-4.7-1.4-7.3c-0.3-19.7-0.7-39.4-0.9-59.1c0-3.9-0.7-7.2-3.6-10.3
	c3.3-0.6,6.6-0.8,9.9-0.8c9.9-0.2,19.7-0.3,30.2,0.1c3.9,4.1,3.9,4.1,4,9c0.1,7.1,0.2,14.2,0.4,21.4c0.1,6.1-0.2,12.3,1.2,18.6
	c-3.1,0.9-5,3.1-7.4,4.5c-9.1,5.4-17.7,11.7-25.8,18.6C848.9,3147.2,846.7,3148.9,844.5,3150.7z"/>
<path class="st19" d="M883.7,3121.5c-1.6-5.9-1.1-12-1.2-18c0-7,0-14,0-21c0-4.8,0-4.8-3.3-8.8c1.9-0.5,4-0.6,6-0.6
	c12.9,0,25.7,0,38.6,0c2.6,0,5.1,0,8.1-1c2.6,1.6,2.8,4,2.8,6.5c0,8.1,0,16.1-0.4,24.9c-1.5,0.9-2.6,1.2-3.7,1.5
	c-15.5,3.2-30.2,8.5-44.4,15.6C885.5,3120.9,884.6,3121.2,883.7,3121.5z"/>
<path class="st20" d="M725.3,3503.6c0-0.5,0.4-0.7,0.6-0.8c0.1,8.3,0.1,16.7-0.3,25.4C725.4,3520.4,725.3,3512.2,725.3,3503.6z"/>
<path class="st21" d="M981.1,3101c1.9-0.1,4,0,6.3,0.3c-0.4,0.3-1,0.4-2.3,0.5c-1.1,0-1.6,0-2,0
	C982.5,3101.6,981.9,3101.4,981.1,3101z"/>
<path class="st20" d="M983.1,3102c0.5-0.2,0.9-0.3,1.7-0.2c-0.1,0.4-0.6,0.7-1.4,1C983.1,3102.8,983.1,3102.3,983.1,3102z"/>
<path class="st1" d="M727.6,3477c-0.3-4.6-0.3-9.1,0-13.7c0.8-10.6,1.8-21.1,2.7-31.6c0.3-3.3,0.7-6.5,1.2-10.2
	c1.2-2.7,2.4-4.9,3.4-7.2c4.2-10.3,8.1-20.7,12.4-30.9c4.8-11.6,10.1-23,16-34.1c6-11.3,12-22.5,19-33.1c4.3-6.5,8.4-13.2,12.9-19.6
	c4.4-6.2,8.8-12.5,13.9-18.2c3.2-3.5,6-7.3,9-10.9c0.8-1,1.7-1.9,2.6-2.8c3.7-3.8,7.5-7.5,11.2-11.2c10.4-10.3,22-19,34.6-26.4
	c2.8-1.7,5.7-3.3,9.1-5.3c8.4-3.7,16.2-7.3,24.5-9.4c4.6-1.1,9-2.5,13.7-3.1c3.2-0.5,6.5-0.5,9.7-1.2c3.1-0.7,6.1-0.8,9.2-0.8
	c5.1,0.1,10.2-0.6,15.1,1c7.3,0,14.3,1.7,21.4,3.3c0.9,0.2,1.8,0.1,2.7,0.1c0,5.9,0,11.7,0,18.1c-0.8,0.8-1.8,1-2.5,1.5
	c-1.1,0.9-2.1,2-3.2,3c-7.7,7.7-15.5,15.5-23.3,23.2c-6.5,6.4-12.3,13.3-18.2,20.3c-3.4,4-7.2,7.7-11.4,11
	c-3.7,2.9-6.8,6.5-10.1,9.9c-1.6,1.7-2.9,3.7-4.6,5.4c-7.7,7.8-15.5,15.5-23.2,23.3c-5.8,5.8-11.6,11.6-16.8,17.9
	c-4.3,5.2-9,10-13.7,14.7c-2.9,3-6.6,5.3-9.3,8.4c-13.5,15.6-29,29.3-43.2,44.2c-3.1,3.3-5.9,6.9-8.8,10.4
	c-4.5,5.3-9.2,10.3-14.8,14.5c-2.9,2.2-5.6,4.8-7.7,7.7c-2.1,2.8-4.5,5.3-6.9,7.7c-7.1,7.1-14.2,14.2-21.3,21.3
	C731.6,3475.5,730.4,3477.2,727.6,3477z"/>
<path class="st8" d="M972.1,3212.8c-1,0.5-1.9,0.6-2.8,0.4c-7.3-1.6-14.6-3.3-22.1-3.3c-5.1-1.6-10.4-1-15.7-1
	c-3.2,0-6.3,0.1-9.5,0.8s-6.7,0.8-10,1.2c-4.9,0.7-9.5,2-14.2,3.2c-8.6,2.1-16.6,5.7-25.1,9.2c-0.6-3.7,1.5-6.3,4.3-8.3
	c4.6-3.3,8.6-7.2,11.9-11.8c0.9-1.2,2-2.2,3.1-3.2c6.9-6.8,13.9-13.7,20.8-20.5c3.6-3.5,7.5-6.8,10.7-10.7
	c7.1-8.5,15.3-15.9,23-23.8c0.8-0.8,1.3-1.9,2-2.7c1.3-1.4,2.5-2.8,4-3.9c4.1-3,7.6-6.6,10.7-10.6c1.6-2,3.5-3.9,5.4-5.6
	c0.6-0.6,1.7-0.6,3-0.8C972.1,3151.7,972.1,3182,972.1,3212.8z"/>
<path class="st22" d="M884.1,3119.8c1.1-0.6,2-0.8,2.8-1.2c14-6.8,28.6-11.9,43.8-15c1.1-0.2,2.1-0.5,3.6-0.9c2-0.3,3.6-0.5,5.5-0.7
	c0.4,3-1.2,5.2-3.2,7.1c-4.4,4.4-8.8,8.8-13.2,13.2c-4.5,4.5-9.1,9-13.5,13.6c-2.8,2.9-5.8,5.5-8,8.9c-1,1.7-2.6,3.1-4.2,4.3
	c-5.9,4.4-10.9,9.6-15.4,15.4c-2,2.6-4.4,5-6.9,7c-3.7,2.8-6.4,6.4-9.1,10c-1,1.3-2.2,2.5-3.3,3.6c-9.5,9.6-19.1,19.1-28.6,28.7
	c-1.5,1.5-2.7,3.4-4.2,5c-2.3,2.4-4.5,4.9-7,6.8c-4.4,3.4-8,7.5-11.8,11.4c-1.8,1.8-3.2,3.9-4.9,5.8c-6.6,7-13.2,14.1-19.9,21
	c-6.6,6.8-13.4,13.4-20.1,20.2c-1.9,1.9-3.8,3.9-7.2,4.3c2.1-7.4,4.4-15,7.2-22.3c3.6-9.2,7.6-18.2,11.5-27.7c0.4-1,0.9-1.5,1.2-2.2
	c8.2-17.1,17.7-33.4,28.8-49.2c3.2-4.2,6.3-8,9.4-11.9c8.3-10.2,17.6-19.5,27.5-28.6c2.3-2,4.5-3.6,6.7-5.3
	c8-6.3,16.5-12.1,25.4-17.1C879.2,3122.6,881.1,3120.6,884.1,3119.8z"/>
<path class="st23" d="M645.1,3960.1c0.5-5.3,1.8-9.8,3.8-14.1c8.9-18.8,27.7-25.1,43.9-23.1c5.3,0.7,10.4,2.1,15.1,4.7
	c11.5,6.3,18.2,16,20.7,28.7c1.8,9,1,17.9-2.7,26.3c-6.3,14.2-17.4,22.2-32.7,24.2c-8.8,1.2-17.5,0.1-25.6-4
	c-13.6-7-20.9-18.3-22.4-33.4C644.8,3966.5,645,3963.5,645.1,3960.1z"/>
<path class="st24" d="M1000.2,3924.7c2.5,0.9,4.6,1.4,6.6,2.4c7.1,3.6,10.9,9.4,11.5,17.4c0.1,1.8,0.1,3.7,0,5.5
	c-0.6,8.9-5,15.1-13.2,18.5c-2.7,1.1-5.6,1.9-8.4,2.2c-11.1,1.4-22.2,0.5-33.5,0.8c-0.2-1.1-0.6-2-0.6-2.8c0-14.2,0-28.5,0-42.7
	c0-0.5,0.2-1.1,0.3-2c1-0.1,2-0.4,3-0.4c8.2,0,16.4-0.1,24.6,0C993.6,3923.7,996.7,3924.3,1000.2,3924.7z"/>
<path class="st24" d="M1126.4,3975.5c0.5,1.4,0.9,2.4,1.3,3.4c-4.9,0.8-39.3,0.8-43.7,0c0.8-3.8,17-42.3,21.6-51.2
	c3.9,7.9,7,15.9,10.4,23.7C1119.4,3959.4,1122.8,3967.3,1126.4,3975.5z"/>
</svg>
