<svg width="36" height="36" viewBox="0 0 36 36" fill="none" xmlns="http://www.w3.org/2000/svg">
<path fill-rule="evenodd" clip-rule="evenodd" d="M32.3765 18.6189C29.4715 23.8356 23.9624 27.0763 18.0019 27.0763C12.0376 27.0763 6.52853 23.8356 3.6235 18.6189C3.39976 18.2139 3.39976 17.7857 3.6235 17.3809C6.52853 12.1643 12.0376 8.92403 18.0019 8.92403C23.9624 8.92403 29.4714 12.1643 32.3765 17.3809C32.6041 17.7857 32.6041 18.2139 32.3765 18.6189ZM34.2322 16.3466C30.9529 10.4568 24.734 6.79834 18.0019 6.79834C11.266 6.79834 5.04704 10.4568 1.76781 16.3466C1.1814 17.3975 1.1814 18.6023 1.76781 19.6525C5.04704 25.5423 11.266 29.2015 18.0019 29.2015C24.734 29.2015 30.9529 25.5423 34.2322 19.6525C34.8186 18.6024 34.8186 17.3975 34.2322 16.3466ZM18.0019 22.3603C20.4054 22.3603 22.3614 20.4044 22.3614 17.9998C22.3614 15.5951 20.4054 13.6392 18.0019 13.6392C15.5946 13.6392 13.6386 15.5951 13.6386 17.9998C13.6386 20.4044 15.5946 22.3603 18.0019 22.3603ZM18.0019 11.5135C14.4217 11.5135 11.5129 14.4235 11.5129 17.9998C11.5129 21.5769 14.4218 24.4857 18.0019 24.4857C21.5782 24.4857 24.4871 21.5768 24.4871 17.9998C24.4871 14.4235 21.5782 11.5135 18.0019 11.5135Z" fill="#222222"/>
</svg>
